<svg xmlns="http://www.w3.org/2000/svg" width="24" height="24"><path d="M 0 4 C 0 1.791 1.791 0 4 0 L 20 0 C 22.209 0 24 1.791 24 4 L 24 20 C 24 22.209 22.209 24 20 24 L 4 24 C 1.791 24 0 22.209 0 20 Z" fill="rgb(255, 255, 255)"></path><path d="M 11.151 5.649 C 11.62 5.18 12.38 5.18 12.849 5.649 L 18.351 11.151 C 18.82 11.62 18.82 12.38 18.351 12.849 L 12.849 18.351 C 12.38 18.82 11.62 18.82 11.151 18.351 L 5.649 12.849 C 5.18 12.38 5.18 11.62 5.649 11.151 Z" fill="rgb(17, 17, 17)"></path></svg>