<svg xmlns="http://www.w3.org/2000/svg" width="30" height="30"><path d="M 0 6 C 0 2.686 2.686 0 6 0 L 24 0 C 27.314 0 30 2.686 30 6 L 30 24 C 30 27.314 27.314 30 24 30 L 6 30 C 2.686 30 0 27.314 0 24 Z" fill="rgb(255, 255, 255)"></path><path d="M 13.939 7.061 C 14.525 6.475 15.475 6.475 16.061 7.061 L 22.939 13.939 C 23.525 14.525 23.525 15.475 22.939 16.061 L 16.061 22.939 C 15.475 23.525 14.525 23.525 13.939 22.939 L 7.061 16.061 C 6.475 15.475 6.475 14.525 7.061 13.939 Z" fill="rgb(17, 17, 17)"></path></svg>