<svg xmlns="http://www.w3.org/2000/svg" width="24" height="24"><path d="M 24 12.457 C 24 10.668 23 9.116 21.545 8.38 C 21.721 7.888 21.817 7.355 21.817 6.795 C 21.817 4.292 19.863 2.267 17.454 2.267 C 16.917 2.267 16.403 2.362 15.927 2.55 C 15.221 1.036 13.726 0 12.001 0 C 10.275 0 8.782 1.038 8.073 2.548 C 7.599 2.361 7.083 2.265 6.546 2.265 C 4.135 2.265 2.183 4.292 2.183 6.795 C 2.183 7.354 2.278 7.886 2.454 8.38 C 1 9.116 0 10.666 0 12.457 C 0 14.15 0.894 15.626 2.219 16.405 C 2.196 16.597 2.183 16.79 2.183 16.987 C 2.183 19.49 4.135 21.517 6.546 21.517 C 7.083 21.517 7.597 21.419 8.072 21.234 C 8.78 22.745 10.273 23.782 11.999 23.782 C 13.727 23.782 15.22 22.745 15.927 21.234 C 16.402 21.418 16.916 21.515 17.454 21.515 C 19.865 21.515 21.817 19.488 21.817 16.985 C 21.817 16.788 21.804 16.595 21.78 16.404 C 23.103 15.626 24 14.15 24 12.458 Z M 16.65 8.428 L 11.385 16.49 C 11.208 16.759 10.921 16.904 10.625 16.904 C 10.452 16.904 10.275 16.854 10.12 16.748 L 9.98 16.631 L 7.046 13.636 C 6.69 13.272 6.69 12.683 7.046 12.321 C 7.402 11.959 7.979 11.956 8.334 12.321 L 10.484 14.513 L 15.131 7.393 C 15.411 6.965 15.977 6.853 16.395 7.137 C 16.815 7.422 16.929 8 16.65 8.427 Z" fill="rgb(255, 255, 255)"></path></svg>