<svg xmlns="http://www.w3.org/2000/svg" width="80" height="80"><path d="M 40 0 C 17.945 0 0 17.945 0 40 C 0 62.055 17.945 80 40 80 C 62.055 80 80 62.055 80 40 C 80 17.945 62.055 0 40 0 Z M 40 6.154 C 58.726 6.154 73.846 21.274 73.846 40 C 73.846 58.726 58.726 73.846 40 73.846 C 21.274 73.846 6.154 58.726 6.154 40 C 6.154 21.274 21.274 6.154 40 6.154 Z M 27.333 21.538 L 27.333 58.462 L 33.487 58.462 L 33.487 46.154 L 43.967 46.154 L 48.872 58.462 L 55.026 58.462 L 49.832 45.385 C 54.641 43.714 58.103 39.231 58.103 33.846 C 58.103 27.046 52.595 21.538 45.795 21.538 Z M 33.467 27.692 L 45.774 27.692 C 49.439 27.692 51.928 30.182 51.928 33.846 C 51.928 37.511 49.439 40 45.774 40 L 33.467 40 Z" fill="rgb(255, 255, 255)"></path></svg>