<svg xmlns="http://www.w3.org/2000/svg" width="80" height="80"><g><path d="M 40 0 C 17.945 0 0 17.945 0 40 C 0 62.055 17.945 80 40 80 C 62.055 80 80 62.055 80 40 C 80 17.945 62.055 0 40 0 Z M 40 6.154 C 58.726 6.154 73.846 21.274 73.846 40 C 73.846 58.726 58.726 73.846 40 73.846 C 21.274 73.846 6.154 58.726 6.154 40 C 6.154 21.274 21.274 6.154 40 6.154 Z" fill="rgb(255, 255, 255)"></path><path d="M 55 33 C 52.333 27.333 46.667 23.333 40 23.333 C 30.667 23.333 23.333 30.667 23.333 40 C 23.333 49.333 30.667 56.667 40 56.667 C 46.667 56.667 52.333 52.667 55 47" fill="transparent" stroke-width="6.67" stroke="rgb(255, 255, 255)" stroke-miterlimit="10"></path></g></svg>