<svg xmlns="http://www.w3.org/2000/svg" width="24" height="24"><path d="M 12 0 C 5.383 0 0 5.383 0 12 C 0 18.617 5.383 24 12 24 C 18.617 24 24 18.617 24 12 C 24 5.383 18.617 0 12 0 Z M 12 1.846 C 17.618 1.846 22.154 6.382 22.154 12 C 22.154 17.618 17.618 22.154 12 22.154 C 6.382 22.154 1.846 17.618 1.846 12 C 1.846 6.382 6.382 1.846 12 1.846 Z M 8.308 6.462 L 8.308 17.538 L 10.154 17.538 L 10.154 13.846 L 13.298 13.846 L 14.769 17.538 L 16.615 17.538 L 15.057 13.615 C 16.5 13.114 17.538 11.769 17.538 10.154 C 17.538 8.114 15.886 6.462 13.846 6.462 Z M 10.154 8.308 L 13.846 8.308 C 14.946 8.308 15.692 9.054 15.692 10.154 C 15.692 11.253 14.946 12 13.846 12 L 10.154 12 Z" fill="rgb(0,0,0)"></path></svg>