<svg xmlns="http://www.w3.org/2000/svg" width="24" height="24"><path d="M 12 0 C 5.383 0 0 5.383 0 12 C 0 18.617 5.383 24 12 24 C 18.617 24 24 18.617 24 12 C 24 5.383 18.617 0 12 0 Z M 12 1.846 C 17.618 1.846 22.154 6.382 22.154 12 C 22.154 17.618 17.618 22.154 12 22.154 C 6.382 22.154 1.846 17.618 1.846 12 C 1.846 6.382 6.382 1.846 12 1.846 Z M 8.2 6.462 L 8.2 17.538 L 10.046 17.538 L 10.046 13.846 L 13.19 13.846 L 14.662 17.538 L 16.508 17.538 L 14.95 13.615 C 16.392 13.114 17.431 11.769 17.431 10.154 C 17.431 8.114 15.778 6.462 13.738 6.462 Z M 10.04 8.308 L 13.732 8.308 C 14.832 8.308 15.578 9.054 15.578 10.154 C 15.578 11.253 14.832 12 13.732 12 L 10.04 12 Z" fill="rgb(255, 255, 255)"></path></svg>