<svg xmlns="http://www.w3.org/2000/svg" width="24" height="24"><g><path d="M 12 0 C 5.383 0 0 5.383 0 12 C 0 18.617 5.383 24 12 24 C 18.617 24 24 18.617 24 12 C 24 5.383 18.617 0 12 0 Z M 12 1.846 C 17.618 1.846 22.154 6.382 22.154 12 C 22.154 17.618 17.618 22.154 12 22.154 C 6.382 22.154 1.846 17.618 1.846 12 C 1.846 6.382 6.382 1.846 12 1.846 Z" fill="rgb(255, 255, 255)"></path><path d="M 16.5 9.9 C 15.7 8.2 14 7 12 7 C 9.2 7 7 9.2 7 12 C 7 14.8 9.2 17 12 17 C 14 17 15.7 15.8 16.5 14.1" fill="transparent" stroke-width="2" stroke="rgb(255, 255, 255)" stroke-miterlimit="10" stroke-dasharray=""></path></g></svg>