<svg xmlns="http://www.w3.org/2000/svg" width="80" height="80"><path d="M 80 41.524 C 80 35.56 76.667 30.388 71.818 27.934 C 72.404 26.292 72.724 24.518 72.724 22.649 C 72.724 14.307 66.21 7.557 58.18 7.557 C 56.39 7.557 54.675 7.874 53.091 8.501 C 50.737 3.454 45.754 0 40.002 0 C 34.25 0 29.275 3.462 26.909 8.494 C 25.328 7.871 23.61 7.55 21.82 7.55 C 13.782 7.55 7.276 14.307 7.276 22.649 C 7.276 24.514 7.592 26.288 8.179 27.934 C 3.333 30.388 0 35.552 0 41.524 C 0 47.167 2.979 52.086 7.398 54.683 C 7.322 55.325 7.276 55.967 7.276 56.623 C 7.276 64.966 13.782 71.723 21.82 71.723 C 23.61 71.723 25.324 71.398 26.905 70.779 C 29.267 75.815 34.242 79.273 39.998 79.273 C 45.758 79.273 50.733 75.815 53.091 70.779 C 54.672 71.395 56.386 71.715 58.18 71.715 C 66.218 71.715 72.724 64.958 72.724 56.616 C 72.724 55.959 72.678 55.317 72.598 54.679 C 77.01 52.086 80 47.167 80 41.528 Z M 55.5 28.093 L 37.949 54.966 C 37.361 55.863 36.402 56.347 35.418 56.347 C 34.838 56.347 34.251 56.181 33.733 55.826 L 33.267 55.437 L 23.487 45.453 C 22.301 44.241 22.301 42.277 23.487 41.07 C 24.674 39.863 26.597 39.855 27.78 41.07 L 34.948 48.376 L 50.438 24.644 C 51.369 23.218 53.256 22.842 54.65 23.789 C 56.051 24.74 56.431 26.666 55.5 28.088 Z" fill="rgb(255, 255, 255)"></path></svg>