<?xml version="1.0" encoding="UTF-8"?>
<svg width="60px" height="28px" viewBox="0 0 60 28" version="1.1" xmlns="http://www.w3.org/2000/svg" xmlns:xlink="http://www.w3.org/1999/xlink">
    <!-- Generator: Sketch 52.6 (67491) - http://www.bohemiancoding.com/sketch -->
    <title>logo</title>
    <desc>Created with Sketch.</desc>
    <g id="Page-1" stroke="none" stroke-width="1" fill="none" fill-rule="evenodd">
        <g id="logo" fill="#FFFFFF" fill-rule="nonzero">
            <path d="M46.4606184,16.4960617 L46.2540482,16.5862752 C45.8460505,16.7667025 45.3249106,16.9752151 44.6897714,17.210962 C44.0546322,17.4475599 43.3577791,17.6952219 42.5983549,17.9539477 C41.8586448,18.2067161 41.1103633,18.4322501 40.3543677,18.6296988 C39.6720859,18.810126 38.9795185,18.9454464 38.2792368,19.034809 C37.6329547,19.1131076 37.1058149,19.0960862 36.6978172,18.9837447 C36.4029618,18.893531 36.1252491,18.7190614 35.8646792,18.4611865 C35.6041092,18.2016096 35.5646809,17.7573501 35.745537,17.1267059 C34.5892579,17.9599052 33.6369776,18.573528 32.8886962,18.9675743 C32.141272,19.3607695 31.5627038,19.5582182 31.1547062,19.5582182 L30.8821363,19.5582182 C30.750137,19.5011964 30.6292806,19.4211956 30.5247098,19.3216202 C30.4004248,19.2092787 30.3489965,19.0058725 30.3721392,18.7139549 C30.3952819,18.4884208 30.4741386,18.2245885 30.6104236,17.9207559 C30.7304229,17.6526683 30.880422,17.3854317 31.0612781,17.1181951 C30.7029945,17.2373452 30.2975682,17.3692613 29.8449994,17.5156457 C28.9724329,17.7964994 28.0432954,18.0773532 27.0567296,18.359909 C26.0744496,18.6399117 25.0887409,18.904595 24.0978895,19.153108 C23.1113238,19.3999188 22.2559001,19.5582182 21.5299042,19.6254529 L21.3259054,19.6254529 C21.0541927,19.6254529 20.8493367,19.5752396 20.7139089,19.4739621 C20.577624,19.3726845 20.4867673,19.2654494 20.441339,19.153108 C20.3513396,18.9505529 20.3281969,18.7079974 20.3736251,18.4262926 C20.4190534,18.1454389 20.4987673,17.8416062 20.6119095,17.5147947 C20.7250517,17.1888342 20.8673366,16.8679801 21.0370499,16.5522324 C21.2067633,16.2373358 21.3713337,15.9564821 21.5299042,15.7088201 C20.9856216,15.8211616 20.3110541,15.9445671 19.5070586,16.0798875 C18.701349,16.2152079 17.9710675,16.2603147 17.3127856,16.2152079 C17.154215,16.2152079 17.0067873,16.1701011 16.8713595,16.0798875 C16.8482168,16.0798875 16.831074,16.07393 16.8199312,16.062866 C16.8079313,16.0518021 16.7907886,16.0458446 16.7693601,16.0458446 C16.6116467,15.9147796 16.513933,15.7258416 16.4967903,15.5224354 C16.4736475,15.3088164 16.5087902,15.0781759 16.5987896,14.830514 C16.7505031,14.5011492 16.9845018,14.2168911 17.2793572,14.0032721 C17.5733555,13.788802 17.8913537,13.682418 18.2307803,13.682418 C18.4347791,13.682418 18.5830639,13.7556102 18.6730635,13.9019946 C18.7639201,14.0483789 18.7870628,14.2449765 18.7407774,14.4934895 C18.6730635,14.7632793 18.5256357,15.044133 18.2993513,15.3369017 C18.7527773,15.3147739 19.223346,15.2637096 19.7110575,15.185411 C20.1541978,15.1139209 20.596481,15.0356223 21.0370499,14.948813 C21.3747623,14.8841315 21.709046,14.8049818 22.0399013,14.712215 L22.447899,14.5947671 C22.6518978,14.5488092 22.7881827,14.5947671 22.8558966,14.7292365 C22.9467532,14.8645569 22.9356104,15.0109412 22.8224682,15.1683895 C22.640755,15.4381793 22.447899,15.7479695 22.2439001,16.0969089 C22.0399013,16.4458484 21.864188,16.7828728 21.7167603,17.1096845 C21.5693326,17.436496 21.4561903,17.7292648 21.3773336,17.9879906 C21.2976199,18.2467164 21.2916199,18.443314 21.3601909,18.5786345 C21.3841908,18.6254435 21.4193335,18.6662948 21.4621903,18.6969335 C21.5067615,18.7309763 21.5976181,18.7360827 21.7339031,18.7139549 C22.4144706,18.6458692 23.2364659,18.4943783 24.1998889,18.2577804 C25.1633119,18.0220335 26.1318778,17.7633076 27.1073008,17.4816029 C28.0304384,17.2160684 28.9492902,16.9343636 29.8621421,16.6373396 C30.5555667,16.4118055 31.2472771,16.1811651 31.9372731,15.9454181 L32.2792712,15.8313745 C32.4558416,15.6969052 32.6366977,15.576904 32.8209823,15.4722221 C32.9572673,15.3828596 33.1269806,15.2977525 33.3309794,15.2186028 C33.5426925,15.138602 33.7672626,15.0926442 33.9944042,15.0832824 C34.2326885,15.0730695 34.4761157,15.1122188 34.7246857,15.2024324 C34.97497,15.291795 35.2243971,15.4603072 35.4729671,15.7088201 C35.6323947,15.8662684 35.5749665,16.0688236 35.3032538,16.3164855 C35.1901116,16.429678 35.0709694,16.4969127 34.9466844,16.5190406 C34.8215423,16.5411684 34.7246857,16.5079766 34.6569718,16.417763 C34.1812602,15.9454181 33.6489776,15.8773324 33.0592667,16.2152079 C32.9152675,16.3003151 32.7781255,16.3964862 32.6469833,16.5011681 C32.6186978,16.5292535 32.5869836,16.5556366 32.5526981,16.5794667 C32.2981282,16.7981922 32.0684152,17.0441519 31.8687021,17.3122395 C31.7212744,17.5062839 31.5961322,17.7164987 31.4949899,17.9369263 C31.4041333,18.1394814 31.358705,18.3088447 31.358705,18.443314 C31.358705,18.5565066 31.3647049,18.6177838 31.3749906,18.6296988 C31.3869905,18.6407627 31.4041333,18.6458692 31.4264189,18.6458692 C31.4487045,18.6458692 31.5344183,18.6348053 31.6809889,18.6126774 C31.8292737,18.5896984 32.0838437,18.4892719 32.4472702,18.3088447 C32.8089824,18.1284175 33.2966939,17.8416062 33.9086904,17.4475599 C34.5206869,17.0535137 35.3032538,16.4849977 36.2555341,15.7428631 C36.5281039,15.5403079 36.7432456,15.4381793 36.9018161,15.4381793 C37.038101,15.4381793 37.1289576,15.49435 37.1743859,15.6075426 C37.2198142,15.6858412 37.2198142,15.7820123 37.1743859,15.860311 C37.1263862,15.943716 37.0809579,16.0279721 37.038101,16.1139303 C36.4483901,17.2169195 36.5049612,17.8816067 37.2078143,18.1054385 C37.6612403,18.240759 38.3195223,18.2186311 39.1809459,18.0382038 C40.1049406,17.8416062 41.0186496,17.5990508 41.9186444,17.3122395 C42.8537819,17.0186198 43.7786337,16.6918082 44.6906285,16.3335069 C45.3977674,16.0569085 46.0997633,15.7692462 46.7983308,15.4722221 C46.8420448,15.4569029 46.8866159,15.44669 46.9329014,15.4398814 L47.0871862,15.1003037 C47.6700401,13.8313556 48.2708937,12.5709182 48.8897473,11.3189915 C49.5017438,10.080682 50.1368831,8.85343629 50.7943078,7.63810568 C51.3908758,6.5308612 52.0148723,5.43893599 52.6645828,4.36233009 C53.1900084,3.48827929 53.7462909,2.63210099 54.330859,1.79549735 C54.8408561,1.07549056 55.2779964,0.54697493 55.6405658,0.209099401 C55.7545651,0.0959068434 55.8728501,0.0286721661 55.9979922,0.00654429767 C56.1222773,-0.0155835708 56.2191339,0.0184593037 56.2868478,0.10782185 C56.4008471,0.175056527 56.4394183,0.265270144 56.4059899,0.377611629 C56.3717044,0.490804187 56.2979906,0.603145673 56.1848484,0.715487159 C55.8668501,1.00740481 55.4708524,1.5035797 54.9951409,2.20145863 C54.449144,3.00827475 53.9280041,3.82955911 53.430007,4.66616274 C52.8128677,5.70021505 52.2171568,6.74788452 51.6445886,7.80746899 C51.0094495,8.97684174 50.397453,10.1589806 49.8085992,11.3521833 C49.2103169,12.5615564 48.6266059,13.7768871 48.0566092,14.9998773 C47.5200409,16.1471222 47.0091866,17.3071331 46.526618,18.4773569 C47.9546098,18.2067161 49.7288854,17.8356488 51.8485875,17.3633038 C53.9691468,16.8901079 56.5251321,16.2262719 59.5174007,15.3709447 C59.6536856,15.3258378 59.7728277,15.3369017 59.8748272,15.4049875 C59.9768266,15.4722221 60.016255,15.5615848 59.9939694,15.6747773 C59.9939694,15.7879698 59.9425411,15.8994602 59.8405417,16.0126528 C59.7445422,16.1207389 59.6211144,16.2024418 59.4831152,16.2483997 C56.3777044,17.104578 53.7360052,17.779478 51.559732,18.2739507 C49.3826016,18.7701257 47.5808977,19.153108 46.1520487,19.4228978 C45.9326214,20.0331163 45.7054799,20.6407816 45.4723384,21.2458937 C45.9257644,21.7871754 46.2317626,22.3778193 46.3903331,23.0195275 C46.5489036,23.6603846 46.5146181,24.2067727 46.2883337,24.6569897 C46.2429054,24.7701823 46.0903348,24.9608223 45.8289078,25.2306121 C45.5683378,25.501253 45.1663401,25.6357223 44.6220575,25.6357223 L44.587772,25.6357223 C44.4514871,25.6357223 44.3049165,25.5914666 44.1454888,25.501253 C43.9869183,25.4110394 43.8849189,25.2084843 43.8394906,24.8935877 C43.7940623,24.57784 43.8232049,24.1446445 43.9252044,23.5931499 C44.0272038,23.0416553 44.1909171,22.4059047 44.4180587,21.6858979 C44.0100611,21.167595 43.5112068,20.8075917 42.9214958,20.6050365 C42.5812121,20.514823 42.3094993,20.4186518 42.1055005,20.3173743 C41.9015017,20.2160968 41.8560734,20.041627 41.9692156,19.7939651 C42.0146439,19.6594957 42.083215,19.5522607 42.1732144,19.4739621 C42.2632139,19.3948124 42.4054988,19.3216202 42.5983549,19.2543855 C42.7912108,19.1862998 43.0517808,19.1241716 43.3809218,19.0688519 C43.8077764,18.9931065 44.2320597,18.9088504 44.6554859,18.8152324 L45.0634835,18.7471467 C45.1997685,18.7250188 45.3591962,18.7028909 45.5400522,18.679912 C45.8229078,17.9786288 46.1297631,17.2501113 46.4606184,16.4952105 L46.4606184,16.4960617 Z M27.8221539,4.93595252 C27.7312972,5.22872124 27.5392984,5.39723348 27.2444429,5.44234029 L12.8582396,7.02958931 L3.23429486,27.5948898 C3.07486721,27.8646796 2.87086837,28 2.62229837,28 L2.55372733,28 C2.30430019,27.9548932 2.23572916,27.786381 2.34972851,27.4936122 C3.01058186,26.045939 3.66286384,24.5931593 4.30486015,23.1378264 C4.92628516,21.7335579 5.52713885,20.3207786 6.10742124,18.8994886 C6.62684683,17.6296893 7.12570112,16.3522305 7.60398409,15.0671119 C7.99655327,14.0194425 8.35912262,12.9607091 8.69254927,11.8926139 C8.97540476,10.969201 9.16311803,10.2211088 9.2531175,9.64663525 C9.34397409,9.07301281 9.32083138,8.71896695 9.18540362,8.58364653 L9.18540362,8.54960365 C9.00369035,8.52747578 8.62483538,8.50449685 8.04541013,8.48236897 C7.46769916,8.46024111 6.76484605,8.4423686 5.93770793,8.43130466 C5.10971268,8.42024073 4.2088607,8.41428323 3.23429486,8.41428323 L0.274597549,8.41428323 C0.0251704078,8.41428323 -0.0545434207,8.26789887 0.0363132011,7.97598122 C0.104884236,7.70534037 0.285740342,7.54789207 0.580595794,7.50278526 L12.3473854,6.18617709 L14.5579442,1.49166469 C14.6325152,1.37251464 14.7310861,1.26868387 14.8467997,1.18783204 C14.9719418,1.0984695 15.091084,1.06442662 15.2042262,1.08655449 C15.4767961,1.13251237 15.5556528,1.3010246 15.4425106,1.59294225 L13.3339512,6.08489954 L27.4475846,4.53169339 C27.7647256,4.48658658 27.8890106,4.62105593 27.8212967,4.93680359 L27.8221539,4.93595252 Z M11.9051022,7.13086685 L8.16455231,7.53597707 C8.91283376,7.58108388 9.41168797,7.63129712 9.66111512,7.68831892 C9.91054226,7.74448967 10.05797,7.82874578 10.1033983,7.94108727 C10.2842545,8.25683493 10.3013972,8.80832951 10.1539695,9.59642206 C10.0073989,10.3836635 9.77425738,11.3181404 9.45711635,12.3981506 L11.9051022,7.13086685 Z M17.7893542,14.6271079 C17.6753549,14.6271079 17.5853554,14.7062575 17.5167844,14.8637058 C17.5167844,14.8866847 17.4944988,14.9649833 17.4490705,15.1003037 C17.5390699,15.0100902 17.5853554,14.9539194 17.5853554,14.9309405 C17.6307837,14.8866847 17.6702121,14.8356204 17.7036404,14.7794496 C17.7344974,14.7292365 17.7627829,14.6790232 17.7893542,14.6271079 Z M45.0643406,22.5965448 C44.8371992,23.4969787 44.7583424,24.115708 44.8260564,24.4535835 C44.8260564,24.6340108 44.8594848,24.7242244 44.9280558,24.7242244 C45.1320546,24.7242244 45.2623396,24.7012454 45.3189107,24.6569897 C45.3600533,24.624649 45.3994816,24.5906061 45.4380529,24.5557122 C45.5289094,24.3301782 45.5460522,24.0433669 45.4886239,23.6935764 C45.43291,23.3446369 45.2914822,22.978676 45.0643406,22.5965448 Z M43.7717767,19.8611997 C44.1120604,19.9743924 44.463487,20.1990753 44.8260564,20.5360998 C44.8714847,20.3795025 44.9220558,20.2263096 44.9794841,20.0807764 L45.1663401,19.5905589 C45.0523407,19.6135378 44.9451986,19.6365168 44.8431991,19.6586447 C44.7411997,19.6816236 44.6332003,19.7037515 44.5200581,19.7258793 C44.2689167,19.7590711 44.0186324,19.8041779 43.7717767,19.8611997 Z" id="Shape"></path>
        </g>
    </g>
</svg>