<svg width="24" height="24" viewBox="0 0 24 24" fill="none" xmlns="http://www.w3.org/2000/svg">
<path fill-rule="evenodd" clip-rule="evenodd" d="M15.0002 3H13.0002V5L15.0001 5V7H17.0001L17.0001 9L15.0001 9V11H17.0001L17.0001 9H19.0001V7H17.0001V5L15.0002 5V3ZM13 3.00002H11V9L9.00012 9V7H7.00024V5H5.00024V7H7.00012V9L9.00006 9V11H11V13H9V15L7.00006 15V17L5.00012 17V19H7.00012V17L9.00006 17V15L11 15V21H13V3.00002ZM15.0002 11H13.0002V13L15.0001 13V15H17.0001L17.0001 17L15.0001 17V19H13.0002V21H15.0002V19H17.0001L17.0001 17H19.0001V15L17.0001 15V13L15.0002 13V11Z" fill="white"/>
</svg>
