<svg width="24" height="24" viewBox="0 0 24 24" fill="none" xmlns="http://www.w3.org/2000/svg">
<path d="M8 2H10V6H14V2H16V6H18V9H20V11H18V13H22V15H18V17H20V19H18V22H6V19H4V17H6V15H2V13H6V11H4V9H6V6H8V2ZM16 8H8V11H16V8ZM11 13H8V20H11V13ZM13 20H16V13H13V20Z" fill="white"/>
<path fill-rule="evenodd" clip-rule="evenodd" d="M4 9H2V7H4V9Z" fill="white"/>
<path fill-rule="evenodd" clip-rule="evenodd" d="M4 19V21H2V19H4Z" fill="white"/>
<path fill-rule="evenodd" clip-rule="evenodd" d="M20 19H22V21H20V19Z" fill="white"/>
<path fill-rule="evenodd" clip-rule="evenodd" d="M20 9V7H22V9H20Z" fill="white"/>
</svg>
