<svg width="24" height="24" viewBox="0 0 24 24" fill="none" xmlns="http://www.w3.org/2000/svg">
<path fill-rule="evenodd" clip-rule="evenodd" d="M9.00006 3H7.00005V3.00002H7V5.00002V5.00004H4.00024H2.00024V5.00006V6.99999H2V19H2.00024V19V19V21V21H4.00024H20.0002H22.0002H22.0002V21V19V19H22.0002V7.00004H22.0003V5.00004H22.0002H22V4.99999H17.0001V3H17.0001H15.0001H9.00006ZM17.0001 6.99999H17.0003V7.00004H20V19H20.0002V19H4.00024V7.00006H9.00024V7.00004V5.00006V5.00004H9.00006V5.00002H15V6.99999V7.00002H17V7H17.0001V6.99999ZM10.0002 9.00002H14.0002V11H10.0002V9.00002ZM14.0001 15H10.0002V17H14.0002V15H16.0001V11H14.0001V15ZM8 11H10V15H8V11Z" fill="white"/>
</svg>
