<svg width="24" height="24" viewBox="0 0 24 24" fill="none" xmlns="http://www.w3.org/2000/svg">
<path fill-rule="evenodd" clip-rule="evenodd" d="M3.99951 2.00012H1.99951V10.0001H3.99951V2.00012ZM19.9998 2.00012H21.9998V10.0001H19.9998V2.00012ZM13.9994 8.00006H9.9996V2.00012H7.99976H7.9996H3.99976V4.00012H7.9996V8.00006H3.99976V10.0001H7.9996V14.0001H3.99976V16.0001H7.9996V20.0001H3.99976V22.0001H7.9996V22.0001H9.9996V16.0001H13.9994V22.0001H15.9994V16.0001H19.9998V14.0001H15.9994V10.0001H19.9998V8.00006H15.9994V2.00012H13.9994V8.00006ZM9.9996 14.0001V10.0001H13.9994V14.0001H9.9996ZM19.9996 2.00012H15.9996V4.00012H19.9996V2.00012ZM1.99951 14.0001H3.99951V22.0001H1.99951V14.0001ZM15.9996 20.0001H19.9996V22.0001H15.9996V20.0001ZM21.9998 14.0001H19.9998V22.0001H21.9998V14.0001Z" fill="white"/>
</svg>
