<svg width="24" height="24" viewBox="0 0 24 24" fill="none" xmlns="http://www.w3.org/2000/svg">
<path fill-rule="evenodd" clip-rule="evenodd" d="M16 2H18V4H16V2ZM20 9H18V8V6H16V4H14V6H12V8H16V9V11V13H18V15H22V13H18V11H20V9ZM20 9V7H22V9H20ZM8 20V19V17V15V13V11H6V9H4V7H2V9H4V11H6V13H2V15H6V17H4V19H2V21H4V19H6V20V22H8H16V20H8ZM10 15H12V17H10V15ZM2 2H4V4H2V2ZM6 6H4V4H6V6ZM8 8H6V6H8V8ZM10 10H8V8H10V10ZM10 10V12H12V14H14V16H16V18H18V20H20V22H22V20H20V18H18V16H16V14H14V12H12V10H10Z" fill="white"/>
</svg>
