<svg width="24" height="24" viewBox="0 0 24 24" fill="none" xmlns="http://www.w3.org/2000/svg">
<path fill-rule="evenodd" clip-rule="evenodd" d="M6 2H8V4H6V2Z" fill="white"/>
<path fill-rule="evenodd" clip-rule="evenodd" d="M10 11H14V13H10V11Z" fill="white"/>
<path fill-rule="evenodd" clip-rule="evenodd" d="M14 15H10V17H14V15Z" fill="white"/>
<path d="M16 4H14V6H10V4H8V6H6V9H4V7H2V9H4V11H6V13H2V15H6V17H4V19H2V21H4V19H6V22H18V19H20V21H22V19H20V17H18V15H22V13H18V11H20V9H22V7H20V9H18V6H16V4ZM8 20V8H16V20H8Z" fill="white"/>
<path fill-rule="evenodd" clip-rule="evenodd" d="M16 4V2H18V4H16Z" fill="white"/>
</svg>
