<svg width="24" height="24" viewBox="0 0 24 24" fill="none" xmlns="http://www.w3.org/2000/svg">
<path fill-rule="evenodd" clip-rule="evenodd" d="M18 2H16V4H18V2ZM3.99988 4.00002H9.99988V6.00002H3.99988V20H17.9999V14H19.9999V22H19.9999V22H1.99988V22V20V6.00002V4.00002H3.99988ZM8.00006 12H6.00006V16V18V18H12.0001V16L13.9999 16V14H11.9999V16L8.00006 16V12ZM11.9999 10H10V11.9999H8V9.99994H9.99994V8.00002H11.9999V6.00002H13.9999V8.00002H11.9999V10ZM14.0001 4.00002H16.0001V6.00002H14.0001V4.00002ZM17.9999 4.00002H19.9999V6.00002H21.9999V8.00002H19.9999V10H18V11.9999H16V9.99994H17.9999V8.00002H19.9999V6.00002H17.9999V4.00002ZM14.0001 12H16.0001V14H14.0001V12Z" fill="white"/>
</svg>
