<svg width="24" height="24" viewBox="0 0 24 24" fill="none" xmlns="http://www.w3.org/2000/svg">
<path fill-rule="evenodd" clip-rule="evenodd" d="M15.9995 2H15.9998V4H15.9995V6H17.9995H19.9995H21.9995V8H19.9995V20H19.9998V22L19.9995 22H17.9995H5.99976L3.99976 22V20V8H1.99951V6H3.99976H5.99976H7.99976V4V2H9.99976H13.9995H15.9995ZM13.9995 4H9.99976V6H13.9995V4ZM13.9995 8H9.99976H7.99976L5.99976 8V20H17.9995V8L15.9995 8H13.9995ZM8.99951 10H10.9995V18H8.99951V10ZM14.9998 10H12.9998V18H14.9998V10Z" fill="white"/>
</svg>
