<?xml version="1.0" encoding="UTF-8"?>
<svg width="441px" height="217px" viewBox="0 0 441 217" version="1.1" xmlns="http://www.w3.org/2000/svg" xmlns:xlink="http://www.w3.org/1999/xlink">
    <title>logo</title>
    <g id="Page-1" stroke="none" stroke-width="1" fill="none" fill-rule="evenodd">
        <g id="logo" transform="translate(0.000000, 0.211641)" fill="#FFFFFF" fill-rule="nonzero">
            <path d="M155.43725,205.979359 L64.25825,205.979359 C57.35925,205.979359 51.06025,202.369359 47.76125,196.350359 L2.47425,117.512359 C-0.82475,111.493359 -0.82475,104.271359 2.47425,98.555359 L48.06225,19.417359 C51.36125,13.398359 57.66025,9.78835905 64.55925,9.78835905 L155.44025,9.78835905 C162.33925,9.78835905 168.63725,13.398359 171.93625,19.417359 L217.52525,98.555359 C220.82425,104.573359 220.82425,111.796359 217.52525,117.512359 L171.93425,196.650359 C168.33425,202.368359 162.03625,205.979359 155.43825,205.979359 L155.43725,205.979359 Z" id="Path"></path>
            <polygon id="Path" points="440.351281 61.9793778 378.377421 1.13686838e-13 332.074 46.305359 285.772441 5.71688538e-05 223.797009 61.9791679 270.099 108.285359 223.797009 154.59155 285.772441 216.570661 332.075 170.262359 378.389891 216.568828 440.365323 154.589718 394.051 108.282359"></polygon>
        </g>
    </g>
</svg>