<svg xmlns="http://www.w3.org/2000/svg" width="444" height="224"><path d="M 157.864 209.191 L 66.685 209.191 C 59.786 209.191 53.487 205.581 50.188 199.562 L 4.901 120.724 C 1.602 114.705 1.602 107.483 4.901 101.767 L 50.489 22.629 C 53.788 16.61 60.087 13 66.986 13 L 157.867 13 C 164.766 13 171.064 16.61 174.363 22.629 L 219.952 101.767 C 223.251 107.785 223.251 115.008 219.952 120.724 L 174.361 199.862 C 170.761 205.58 164.463 209.19 157.865 209.19 Z" fill="rgb(255, 255, 255)"></path><path d="M 414.507 157.803 L 380.815 191.497 L 334.501 145.191 L 288.199 191.497 L 254.507 157.803 L 300.809 111.497 L 254.507 65.191 L 288.199 31.497 L 334.501 77.803 L 380.804 31.497 L 414.495 65.191 L 368.193 111.497 Z" fill="hsl(0, 0%, 100%)" stroke-width="40" stroke="rgb(255, 255, 255)"></path></svg>