<svg xmlns="http://www.w3.org/2000/svg" width="514" height="450"><path d="M 459.4 33.3 C 401.6 -15.3 312.3 -8 257 48.3 C 201.7 -8 112.4 -15.4 54.6 33.3 C -20.6 96.6 -9.6 199.8 44 254.5 L 219.4 433.2 C 229.4 443.4 242.8 449.1 257 449.1 C 271.3 449.1 284.6 443.5 294.6 433.3 L 470 254.6 C 523.5 199.9 534.7 96.7 459.4 33.3 Z M 435.8 220.8 L 260.4 399.5 C 258 401.9 256 401.9 253.6 399.5 L 78.2 220.8 C 41.7 183.6 34.3 113.2 85.5 70.1 C 124.4 37.4 184.4 42.3 222 80.6 L 257 116.3 L 292 80.6 C 329.8 42.1 389.8 37.4 428.5 70 C 479.6 113.1 472 183.9 435.8 220.8 Z" fill="#4A50C0"></path></svg>